<?xml version="1.0" encoding="UTF-8" standalone="no"?>
<!DOCTYPE svg PUBLIC "-//W3C//DTD SVG 1.1//EN" "http://www.w3.org/Graphics/SVG/1.1/DTD/svg11.dtd">
<svg width="100%" height="100%" viewBox="0 0 506 506" version="1.1" xmlns="http://www.w3.org/2000/svg" xmlns:xlink="http://www.w3.org/1999/xlink" xml:space="preserve" style="fill-rule:evenodd;clip-rule:evenodd;stroke-linejoin:round;stroke-miterlimit:1.41421;">
    <g>
        <path d="M488.653,379.469C504.122,321.156 504.041,260.07 488.417,201.783C507.899,188.522 510.709,161.022 496.438,142.819C479.381,121.063 444.51,123.846 430.542,147.689C414.998,143.97 399.191,140.944 383.39,138.65C382.457,134.588 381.457,130.536 380.375,126.499C399.858,113.239 402.668,85.738 388.397,67.535C371.34,45.779 336.468,48.561 322.501,72.405C241.426,53.005 156.35,53.107 75.348,72.702C62.525,50.728 31.737,45.93 12.945,63.108C-6.413,80.802 -3.666,113.172 18.544,127.269C14.402,142.885 11.342,158.862 9.43,174.875C7.906,187.643 27.766,189.996 29.289,177.246C31.404,159.533 35.01,141.869 40.005,124.744C41.503,119.611 38.697,114.208 33.637,112.48C12.242,105.174 17.695,72.484 40.279,72.484C49.348,72.484 57.457,78.559 60,87.257C61.516,92.444 66.878,95.487 72.107,94.132C155.027,72.638 242.729,72.528 325.733,93.812C330.915,95.143 336.225,92.156 337.783,87.038C344.484,65.032 377.992,70.093 377.992,93.035C377.992,101.551 372.865,109.062 364.931,112.171C360.106,114.062 357.525,119.324 358.984,124.296C376.447,183.833 376.539,246.789 359.252,306.358C357.821,311.288 360.356,316.501 365.117,318.42C372.939,321.573 377.993,329.056 377.993,337.483C377.993,348.814 368.774,358.033 357.443,358.033C348.617,358.033 340.793,352.415 337.973,344.053C336.299,339.09 331.079,336.262 326.008,337.564C242.837,358.94 154.951,358.828 71.85,337.243C66.729,335.912 61.457,338.803 59.825,343.834C57.068,352.328 49.213,358.034 40.279,358.034C28.948,358.034 19.729,348.815 19.729,337.484C19.729,328.782 25.243,320.992 33.45,318.1C38.447,316.339 41.203,310.986 39.734,305.895C34.876,289.064 31.36,271.707 29.284,254.306C27.76,241.538 7.903,243.925 9.425,256.675C11.3,272.391 14.281,288.071 18.305,303.405C-3.685,317.608 -6.338,349.784 12.944,367.409C31.438,384.314 61.846,380.069 74.895,358.628C91.04,362.549 107.35,365.682 123.755,368.053C124.569,371.606 125.419,375.157 126.346,378.687C106.457,391.533 102.941,419.006 116.882,437.621C133.527,459.846 168.538,457.568 182.936,433.911C264.251,453.655 349.683,453.755 431.056,434.198C443.373,454.007 470.169,458.174 489.027,445.164C511.608,429.585 511.231,395.101 488.653,379.469L488.653,379.469ZM467.028,199.579C484.49,259.117 484.583,322.072 467.295,381.64C465.864,386.57 468.399,391.783 473.159,393.702C493.546,401.923 487.521,433.315 465.486,433.315C456.66,433.315 448.836,427.697 446.016,419.335C444.342,414.372 439.123,411.544 434.051,412.846C350.881,434.222 262.994,434.11 179.893,412.525C174.772,411.194 169.501,414.085 167.867,419.117C160.833,440.791 127.772,435.511 127.772,412.766C127.772,404.064 133.286,396.275 141.492,393.383C146.49,391.622 149.246,386.269 147.777,381.178C146.777,377.713 145.834,374.209 144.945,370.69C204.382,376.844 264.74,372.923 323.017,358.917C330.3,370.63 343.213,378.034 357.445,378.034C379.804,378.034 397.995,359.844 397.995,337.484C397.995,323.948 391.391,311.649 380.613,304.187C393.185,256.798 395.485,207.578 387.521,159.517C403.067,161.997 418.578,165.199 433.777,169.096C438.96,170.427 444.269,167.441 445.827,162.323C452.527,140.316 486.036,145.378 486.036,168.32C486.036,176.835 480.91,184.346 472.975,187.456C468.151,189.345 465.569,194.607 467.028,199.579L467.028,199.579Z" style="fill:rgb(0,116,222);fill-rule:nonzero;"/>
        <path d="M16.786,225.785C21.418,225.785 25.539,222.461 26.546,217.951C28.544,209 17.869,202.265 10.637,207.902C3.313,213.61 7.496,225.785 16.786,225.785L16.786,225.785Z" style="fill:rgb(0,116,222);fill-rule:nonzero;"/>
    </g>
</svg>
