<?xml version="1.0" encoding="UTF-8" standalone="no"?>
<!DOCTYPE svg PUBLIC "-//W3C//DTD SVG 1.1//EN" "http://www.w3.org/Graphics/SVG/1.1/DTD/svg11.dtd">
<svg width="100%" height="100%" viewBox="0 0 113 132" version="1.1" xmlns="http://www.w3.org/2000/svg" xmlns:xlink="http://www.w3.org/1999/xlink" xml:space="preserve" style="fill-rule:evenodd;clip-rule:evenodd;stroke-linecap:round;stroke-linejoin:round;stroke-miterlimit:10;">
    <g transform="matrix(1,0,0,1,-166.653,-40.9417)">
        <path d="M247.375,113.763C248.176,108.84 251.506,104.501 254.884,101.243C260.105,96.204 268.524,96.077 273.48,101.378C274.006,101.94 274.468,102.534 274.835,103.157C279.19,110.541 279.027,119.748 274.827,127.222L267.271,140.647C265.929,143.04 265.221,145.743 265.221,148.487L265.221,155.764C265.221,159.501 262.191,162.53 258.455,162.53L187.742,162.53C184.006,162.53 180.977,159.501 180.977,155.764L180.977,148.487C180.977,145.743 180.269,143.04 178.917,140.647L171.362,127.222C167.161,119.748 167.007,110.541 171.362,103.157C171.733,102.527 172.2,101.927 172.732,101.358C177.702,96.057 186.106,96.196 191.349,101.229C194.675,104.423 197.942,108.659 198.765,113.466" style="fill:none;stroke:rgb(0,116,222);stroke-width:3px;"/>
    </g>
    <g transform="matrix(1,0,0,1,-166.653,-40.9417)">
        <path d="M244.774,113.755L201.419,113.755C194.791,113.755 189.419,119.128 189.419,125.755L189.419,132.379C189.419,134.588 191.209,136.379 193.419,136.379L252.774,136.379C254.983,136.379 256.774,134.588 256.774,132.379L256.774,125.755C256.774,119.128 251.402,113.755 244.774,113.755Z" style="fill:none;stroke:rgb(0,116,222);stroke-width:3px;"/>
    </g>
    <g transform="matrix(1,0,0,1,-166.653,-40.9417)">
        <path d="M186.764,98.212L186.764,55.468C186.764,48.274 192.596,42.442 199.789,42.442L246.403,42.442C253.596,42.442 259.428,48.274 259.428,55.468L259.428,98.213" style="fill:none;stroke:rgb(0,116,222);stroke-width:3px;"/>
    </g>
    <g transform="matrix(1,0,0,1,-166.653,-40.9417)">
        <path d="M200.362,170.442L193.508,170.442C191.851,170.442 190.508,169.099 190.508,167.442L190.508,162.53L203.362,162.53L203.362,167.442C203.362,169.099 202.019,170.442 200.362,170.442Z" style="fill:none;stroke:rgb(0,116,222);stroke-width:3px;"/>
    </g>
    <g transform="matrix(1,0,0,1,-166.653,-40.9417)">
        <path d="M252.684,170.442L245.83,170.442C244.173,170.442 242.83,169.099 242.83,167.442L242.83,162.53L255.684,162.53L255.684,167.442C255.684,169.099 254.341,170.442 252.684,170.442Z" style="fill:none;stroke:rgb(0,116,222);stroke-width:3px;"/>
    </g>
    <g transform="matrix(1,0,0,1,-166.653,-40.9417)">
        <path d="M209.781,74.098C209.781,76.859 207.543,79.098 204.781,79.098C202.019,79.098 199.781,76.859 199.781,74.098C199.781,71.336 202.019,69.098 204.781,69.098C207.543,69.098 209.781,71.336 209.781,74.098Z" style="fill:none;stroke:rgb(0,116,222);stroke-width:3px;"/>
    </g>
    <g transform="matrix(1,0,0,1,-166.653,-40.9417)">
        <path d="M201.241,77.633L197.771,81.113" style="fill:none;stroke:rgb(0,116,222);stroke-width:3px;"/>
    </g>
    <g transform="matrix(1,0,0,1,-166.653,-40.9417)">
        <path d="M211.791,67.083L208.321,70.553" style="fill:none;stroke:rgb(0,116,222);stroke-width:3px;"/>
    </g>
    <g transform="matrix(1,0,0,1,-166.653,-40.9417)">
        <path d="M211.791,81.113L208.321,77.633" style="fill:none;stroke:rgb(0,116,222);stroke-width:3px;"/>
    </g>
    <g transform="matrix(1,0,0,1,-166.653,-40.9417)">
        <path d="M201.241,70.553L197.771,67.083" style="fill:none;stroke:rgb(0,116,222);stroke-width:3px;"/>
    </g>
    <g transform="matrix(1,0,0,1,-166.653,-40.9417)">
        <path d="M246.412,74.098C246.412,76.859 244.173,79.098 241.412,79.098C238.65,79.098 236.412,76.859 236.412,74.098C236.412,71.336 238.65,69.098 241.412,69.098C244.173,69.098 246.412,71.336 246.412,74.098Z" style="fill:none;stroke:rgb(0,116,222);stroke-width:3px;"/>
    </g>
    <g transform="matrix(1,0,0,1,-166.653,-40.9417)">
        <path d="M237.872,77.633L234.402,81.113" style="fill:none;stroke:rgb(0,116,222);stroke-width:3px;"/>
    </g>
    <g transform="matrix(1,0,0,1,-166.653,-40.9417)">
        <path d="M248.422,67.083L244.952,70.553" style="fill:none;stroke:rgb(0,116,222);stroke-width:3px;"/>
    </g>
    <g transform="matrix(1,0,0,1,-166.653,-40.9417)">
        <path d="M248.422,81.113L244.952,77.633" style="fill:none;stroke:rgb(0,116,222);stroke-width:3px;"/>
    </g>
    <g transform="matrix(1,0,0,1,-166.653,-40.9417)">
        <path d="M237.872,70.553L234.402,67.083" style="fill:none;stroke:rgb(0,116,222);stroke-width:3px;"/>
    </g>
</svg>
