<?xml version="1.0" encoding="UTF-8" standalone="no"?>
<!DOCTYPE svg PUBLIC "-//W3C//DTD SVG 1.1//EN" "http://www.w3.org/Graphics/SVG/1.1/DTD/svg11.dtd">
<svg width="100%" height="100%" viewBox="0 0 78 132" version="1.1" xmlns="http://www.w3.org/2000/svg" xmlns:xlink="http://www.w3.org/1999/xlink" xml:space="preserve" style="fill-rule:evenodd;clip-rule:evenodd;stroke-linecap:round;stroke-linejoin:round;stroke-miterlimit:10;">
    <g transform="matrix(1,0,0,1,-184.134,-214.256)">
        <path d="M244.906,284.905L244.906,269.711C244.906,267.756 246.492,266.17 248.448,266.17L257.018,266.17C258.973,266.17 260.559,267.756 260.559,269.711L260.559,332.526C260.559,334.481 258.973,336.067 257.018,336.067L189.175,336.067C187.219,336.067 185.634,334.481 185.634,332.526L185.634,312.583" style="fill:none;stroke:rgb(0,116,222);stroke-width:3px;"/>
    </g>
    <g transform="matrix(1,0,0,1,-184.134,-214.256)">
        <path d="M244.906,284.905L201.634,284.905C192.797,284.905 185.634,292.069 185.634,300.905L185.634,312.583L240.906,312.583C243.116,312.583 244.906,310.793 244.906,308.583L244.906,284.905Z" style="fill:none;stroke:rgb(0,116,222);stroke-width:3px;"/>
    </g>
    <g transform="matrix(1,0,0,1,-184.134,-214.256)">
        <path d="M194.271,286.025L194.271,226.38C194.271,220.513 199.027,215.756 204.895,215.756L242.856,215.756C248.723,215.756 253.48,220.513 253.48,226.38L253.48,266.171" style="fill:none;stroke:rgb(0,116,222);stroke-width:3px;"/>
    </g>
    <g transform="matrix(1,0,0,1,-184.134,-214.256)">
        <path d="M204.552,343.756L197.52,343.756C195.864,343.756 194.52,342.413 194.52,340.756L194.52,336.067L207.552,336.067L207.552,340.756C207.552,342.413 206.209,343.756 204.552,343.756Z" style="fill:none;stroke:rgb(0,116,222);stroke-width:3px;"/>
    </g>
    <g transform="matrix(1,0,0,1,-184.134,-214.256)">
        <path d="M248.673,343.756L241.64,343.756C239.984,343.756 238.64,342.413 238.64,340.756L238.64,336.067L251.673,336.067L251.673,340.756C251.673,342.413 250.329,343.756 248.673,343.756Z" style="fill:none;stroke:rgb(0,116,222);stroke-width:3px;"/>
    </g>
    <g transform="matrix(1,0,0,1,-184.134,-214.256)">
        <path d="M228.876,250.89C228.876,253.652 226.637,255.89 223.876,255.89C221.114,255.89 218.876,253.652 218.876,250.89C218.876,248.129 221.114,245.89 223.876,245.89C226.637,245.89 228.876,248.129 228.876,250.89Z" style="fill:none;stroke:rgb(0,116,222);stroke-width:3px;"/>
    </g>
    <g transform="matrix(1,0,0,1,-184.134,-214.256)">
        <path d="M220.336,254.426L216.866,257.906" style="fill:none;stroke:rgb(0,116,222);stroke-width:3px;"/>
    </g>
    <g transform="matrix(1,0,0,1,-184.134,-214.256)">
        <path d="M230.886,243.876L227.416,247.346" style="fill:none;stroke:rgb(0,116,222);stroke-width:3px;"/>
    </g>
    <g transform="matrix(1,0,0,1,-184.134,-214.256)">
        <path d="M230.886,257.906L227.416,254.426" style="fill:none;stroke:rgb(0,116,222);stroke-width:3px;"/>
    </g>
    <g transform="matrix(1,0,0,1,-184.134,-214.256)">
        <path d="M220.336,247.346L216.866,243.876" style="fill:none;stroke:rgb(0,116,222);stroke-width:3px;"/>
    </g>
</svg>
