<?xml version="1.0" encoding="UTF-8" standalone="no"?>
<!DOCTYPE svg PUBLIC "-//W3C//DTD SVG 1.1//EN" "http://www.w3.org/Graphics/SVG/1.1/DTD/svg11.dtd">
<svg width="100%" height="100%" viewBox="0 0 87 132" version="1.1" xmlns="http://www.w3.org/2000/svg" xmlns:xlink="http://www.w3.org/1999/xlink" xml:space="preserve" style="fill-rule:evenodd;clip-rule:evenodd;stroke-linecap:round;stroke-linejoin:round;stroke-miterlimit:10;">
    <g transform="matrix(1,0,0,1,-43.2621,-214.253)">
        <path d="M128.596,224.843L128.596,238.053C128.596,243.073 124.526,247.143 119.495,247.143L76.906,247.143L76.916,247.063C72.476,246.453 69.066,242.653 69.066,238.053L69.066,224.843C69.066,219.823 73.136,215.753 78.166,215.753L119.495,215.753C124.526,215.753 128.596,219.823 128.596,224.843Z" style="fill:none;stroke:rgb(0,116,222);stroke-width:3px;"/>
    </g>
    <g transform="matrix(1,0,0,1,-43.2621,-214.253)">
        <path d="M111.107,221.975L115.646,221.975C119.162,221.975 122.011,224.825 122.011,228.34L122.011,238.738" style="fill:none;stroke:rgb(0,116,222);stroke-width:3px;"/>
    </g>
    <g transform="matrix(1,0,0,1,-43.2621,-214.253)">
        <path d="M85.573,339.263L51.902,339.263C48.914,339.263 46.491,336.84 46.491,333.852L46.491,319.063C46.491,316.075 48.914,313.653 51.902,313.653L85.573,313.653C88.561,313.653 90.984,316.075 90.984,319.063L90.984,333.852C90.984,336.84 88.561,339.263 85.573,339.263Z" style="fill:none;stroke:rgb(0,116,222);stroke-width:3px;"/>
    </g>
    <g transform="matrix(1,0,0,1,-43.2621,-214.253)">
        <path d="M86.967,297.581L49.692,297.581C47.473,297.581 45.674,299.38 45.674,301.599L45.674,309.635C45.674,311.854 47.473,313.653 49.692,313.653L86.967,313.653C89.186,313.653 90.985,311.854 90.985,309.635L90.985,301.599C90.985,299.38 89.186,297.581 86.967,297.581Z" style="fill:none;stroke:rgb(0,116,222);stroke-width:3px;"/>
    </g>
    <g transform="matrix(1,0,0,1,-43.2621,-214.253)">
        <path d="M86.97,313.648L85.57,313.648L51.899,313.648C48.908,313.648 46.489,316.078 46.489,319.058L46.489,333.849C46.489,336.838 48.908,339.259 51.899,339.259L85.57,339.259C88.56,339.259 90.98,336.838 90.98,333.849L90.98,319.058" style="fill:none;stroke:rgb(0,116,222);stroke-width:3px;"/>
    </g>
    <g transform="matrix(1,0,0,1,-43.2621,-214.253)">
        <path d="M86.967,297.581L49.692,297.581C47.473,297.581 45.674,299.38 45.674,301.599L45.674,309.635C45.674,311.854 47.473,313.653 49.692,313.653L86.967,313.653C89.186,313.653 90.985,311.854 90.985,309.635L90.985,301.599C90.985,299.38 89.186,297.581 86.967,297.581Z" style="fill:none;stroke:rgb(0,116,222);stroke-width:3px;"/>
    </g>
    <g transform="matrix(1,0,0,1,-43.2621,-214.253)">
        <path d="M90.55,297.581C90.82,297.581 91.071,297.44 91.211,297.21L121.071,248.329C121.386,247.813 121.015,247.15 120.409,247.15L76.915,247.15C76.646,247.15 76.395,247.291 76.254,247.521L46.491,299.173" style="fill:none;stroke:rgb(0,116,222);stroke-width:3px;"/>
    </g>
    <g transform="matrix(1,0,0,1,-43.2621,-214.253)">
        <path d="M122.011,261.517L122.011,288.698C122.011,288.877 121.961,289.058 121.871,289.207L92.771,336.369C92.261,337.199 90.981,336.829 90.981,335.858" style="fill:none;stroke:rgb(0,116,222);stroke-width:3px;"/>
    </g>
    <g transform="matrix(1,0,0,1,-43.2621,-214.253)">
        <path d="M122.011,246.797L122.011,263.087C122.011,263.267 121.961,263.447 121.871,263.597L120.271,266.177L101.341,296.858L89.351,315.198" style="fill:none;stroke:rgb(0,116,222);stroke-width:3px;"/>
    </g>
    <g transform="matrix(1,0,0,1,-43.2621,-214.253)">
        <path d="M90.98,309.638L90.98,301.597L90.98,297.858C90.98,297.678 91.03,297.497 91.129,297.347" style="fill:none;stroke:rgb(0,116,222);stroke-width:3px;"/>
    </g>
    <g transform="matrix(1,0,0,1,-43.2621,-214.253)">
        <path d="M53.546,286.93L53.547,263.076C53.547,262.705 53.247,262.405 52.876,262.405L44.767,262.405L44.765,287.869C44.765,289.336 45.954,290.525 47.42,290.525L51.474,290.525" style="fill:none;stroke:rgb(0,116,222);stroke-width:3px;"/>
    </g>
    <g transform="matrix(1,0,0,1,-43.2621,-214.253)">
        <path d="M69.066,236.052L53.543,262.407L44.762,262.407L63.516,230.357L69.059,230.357" style="fill:none;stroke:rgb(0,116,222);stroke-width:3px;"/>
    </g>
    <g transform="matrix(1,0,0,1,-43.2621,-214.253)">
        <path d="M59.479,339.263L59.479,342.644C59.479,343.744 58.58,344.644 57.479,344.644L51.142,344.644C50.038,344.644 49.142,343.749 49.142,342.644L49.142,338.532" style="fill:none;stroke:rgb(0,116,222);stroke-width:3px;"/>
    </g>
    <g transform="matrix(1,0,0,1,-43.2621,-214.253)">
        <path d="M90.19,336.66L90.19,342.644C90.19,343.748 89.294,344.644 88.19,344.644L81.663,344.644C80.558,344.644 79.663,343.748 79.663,342.644L79.663,339.263" style="fill:none;stroke:rgb(0,116,222);stroke-width:3px;"/>
    </g>
    <g transform="matrix(1,0,0,1,-43.2621,-214.253)">
        <path d="M120.01,292.222L120.01,303.572C120.01,304.672 119.119,305.572 118.01,305.572L111.78,305.572" style="fill:none;stroke:rgb(0,116,222);stroke-width:3px;"/>
    </g>
    <g transform="matrix(1,0,0,1,-43.2621,-214.253)">
        <path d="M102.594,231.448C102.594,233.526 100.909,235.21 98.831,235.21C96.754,235.21 95.07,233.526 95.07,231.448C95.07,229.37 96.754,227.685 98.831,227.685C100.909,227.685 102.594,229.37 102.594,231.448Z" style="fill:none;stroke:rgb(0,116,222);stroke-width:3px;"/>
    </g>
    <g transform="matrix(1,0,0,1,-43.2621,-214.253)">
        <path d="M96.168,234.108L93.557,236.727" style="fill:none;stroke:rgb(0,116,222);stroke-width:3px;"/>
    </g>
    <g transform="matrix(1,0,0,1,-43.2621,-214.253)">
        <path d="M104.106,226.169L101.495,228.78" style="fill:none;stroke:rgb(0,116,222);stroke-width:3px;"/>
    </g>
    <g transform="matrix(1,0,0,1,-43.2621,-214.253)">
        <path d="M104.106,236.727L101.495,234.108" style="fill:none;stroke:rgb(0,116,222);stroke-width:3px;"/>
    </g>
    <g transform="matrix(1,0,0,1,-43.2621,-214.253)">
        <path d="M96.168,228.78L93.557,226.17" style="fill:none;stroke:rgb(0,116,222);stroke-width:3px;"/>
    </g>
</svg>
