<?xml version="1.0" encoding="UTF-8" standalone="no"?>
<!DOCTYPE svg PUBLIC "-//W3C//DTD SVG 1.1//EN" "http://www.w3.org/Graphics/SVG/1.1/DTD/svg11.dtd">
<svg width="100%" height="100%" viewBox="0 0 492 492" version="1.1" xmlns="http://www.w3.org/2000/svg" xmlns:xlink="http://www.w3.org/1999/xlink" xml:space="preserve" style="fill-rule:evenodd;clip-rule:evenodd;stroke-linejoin:round;stroke-miterlimit:1.41421;">
    <path d="M464.344,207.418L465.112,207.586L135.888,207.586L239.384,103.862C244.452,98.798 247.232,91.938 247.232,84.738C247.232,77.538 244.452,70.726 239.384,65.65L223.28,49.538C218.216,44.474 211.468,41.674 204.272,41.674C197.072,41.674 190.32,44.454 185.256,49.518L7.844,226.914C2.76,231.998 -0.02,238.77 0,245.974C-0.02,253.218 2.76,259.994 7.844,265.07L185.256,442.482C190.32,447.542 197.068,450.326 204.272,450.326C211.468,450.326 218.216,447.538 223.28,442.482L239.384,426.37C244.452,421.314 247.232,414.562 247.232,407.362C247.232,400.166 244.452,393.77 239.384,388.71L134.72,284.406L464.712,284.406C479.54,284.406 492,271.626 492,256.806L492,234.018C492,219.198 479.172,207.418 464.344,207.418Z" style="fill:rgb(0,116,222);fill-rule:nonzero;"/>
</svg>
